<svg viewBox="0 0 512 512" xmlns="http://www.w3.org/2000/svg"><path d="M346.401 244.46c-1.944-17.731 2.327-35.635 11.717-49.12a71.521 71.521 0 0 0 12.847-40.657c-.094-33.708-18.376-61.086-40.773-61.086h-.077c-22.43.062-40.603 27.567-40.51 61.311a70.858 70.858 0 0 0 11.875 38.451 73.406 73.406 0 0 1 11.272 46.258l-9.98 118.833c-1.353 19.208 3.897 38.115 14.403 51.875l.661.866c3.553 4.653 8.334 7.213 13.467 7.213h.043c5.15-.014 9.933-2.602 13.47-7.287 10.857-14.385 15.937-34.059 13.935-53.994Zm-29.663-4.508a77.424 77.424 0 0 0-11.912-48.785 67.47 67.47 0 0 1-11.22-36.27c-.088-31.54 16.295-57.244 36.521-57.3h.065c20.196 0 36.685 25.592 36.773 57.096a67.476 67.476 0 0 1-12.13 38.36c-9.935 14.269-14.458 33.164-12.41 51.842l12.347 112.645a81.278 81.278 0 0 1 .377 10.029H306.64a80.563 80.563 0 0 1 .12-8.81l.266-3.152 31.05-.134a2 2 0 0 0-.01-4h-.008l-30.696.132Zm24.885 168.754c-2.764 3.664-6.418 5.688-10.287 5.698h-.031c-3.858 0-7.511-2.003-10.288-5.641l-.661-.866c-7.578-9.924-12.246-22.72-13.464-36.329h48.073c-1.021 13.882-5.641 26.935-13.342 37.138ZM222.395 154.682c-.066-23.626-9.273-45.342-23.458-55.325-.035-.025-.074-.04-.11-.062a1.918 1.918 0 0 0-.149-.084 1.965 1.965 0 0 0-.217-.093 1.937 1.937 0 0 0-.14-.045 1.964 1.964 0 0 0-.255-.052c-.026-.004-.05-.013-.077-.016-.02-.002-.04.001-.06 0a1.981 1.981 0 0 0-.246-.001 1.926 1.926 0 0 0-.162.012 1.986 1.986 0 0 0-.206.042c-.059.014-.118.028-.175.048a1.96 1.96 0 0 0-.184.076c-.056.026-.112.052-.165.082a1.975 1.975 0 0 0-.166.11 2.012 2.012 0 0 0-.15.117c-.047.04-.09.085-.133.13a1.949 1.949 0 0 0-.142.164c-.015.02-.034.036-.05.057-.018.027-.03.057-.047.085a1.958 1.958 0 0 0-.11.195c-.027.055-.05.11-.071.167a1.964 1.964 0 0 0-.064.196c-.017.064-.03.129-.04.194-.006.038-.018.072-.022.11l-3.395 32.96-4.484-31.979a6.272 6.272 0 0 0-12.406.02l-4.485 31.963-3.407-33.077c-.003-.034-.015-.065-.02-.1a2.023 2.023 0 0 0-.041-.2 1.98 1.98 0 0 0-.063-.199 2.104 2.104 0 0 0-.065-.154 1.981 1.981 0 0 0-.124-.22c-.013-.022-.021-.045-.036-.065-.011-.017-.026-.029-.038-.045a1.972 1.972 0 0 0-.178-.208c-.029-.029-.056-.058-.086-.085a1.975 1.975 0 0 0-.213-.166c-.033-.022-.064-.045-.098-.065a1.991 1.991 0 0 0-.237-.119c-.037-.016-.074-.033-.113-.047a1.974 1.974 0 0 0-.235-.066 1.856 1.856 0 0 0-.153-.03 2.407 2.407 0 0 0-.418-.015c-.025.002-.05-.002-.076 0-.03.003-.057.014-.086.018a1.988 1.988 0 0 0-.227.047 1.976 1.976 0 0 0-.17.054 1.944 1.944 0 0 0-.37.182c-.028.017-.058.029-.086.048-14.312 9.976-23.517 31.826-23.45 55.666a70.86 70.86 0 0 0 11.874 38.451 73.408 73.408 0 0 1 11.272 46.259l-9.98 118.833c-1.353 19.206 3.897 38.114 14.404 51.875l.66.865c3.553 4.653 8.334 7.214 13.467 7.214h.043c5.15-.014 9.933-2.603 13.47-7.288 10.857-14.385 15.937-34.059 13.934-53.993L197.83 244.46c-1.943-17.732 2.328-35.635 11.718-49.12a71.51 71.51 0 0 0 12.847-40.658Zm-29.342 254.024c-2.765 3.663-6.419 5.687-10.288 5.697h-.03c-3.858 0-7.51-2.002-10.29-5.64l-.66-.866c-7.577-9.925-12.246-22.722-13.464-36.33h48.074c-1.022 13.883-5.642 26.936-13.342 37.139Zm.801-163.811 12.349 112.645a81.297 81.297 0 0 1 .376 10.029H158.07a80.538 80.538 0 0 1 .121-8.81l.265-3.152 31.049-.134a2 2 0 0 0-.009-4h-.009l-30.695.132 9.376-111.653a77.428 77.428 0 0 0-11.912-48.786 67.481 67.481 0 0 1-11.22-36.269c-.059-20.958 7.299-40.176 18.975-50.219l3.106 30.16a3.874 3.874 0 0 0 3.827 3.517h.076a3.873 3.873 0 0 0 3.876-3.374l4.573-32.613a2.272 2.272 0 0 1 4.49-.02l4.575 32.628a3.919 3.919 0 0 0 7.779-.143l3.09-30.025c11.572 10.042 18.934 29.13 18.992 49.886a67.476 67.476 0 0 1-12.129 38.36c-9.935 14.267-14.46 33.162-12.412 51.841Z" fill="#ffffff" class="fill-000000"></path></svg>