<svg viewBox="0 0 32 32" xml:space="preserve" xmlns="http://www.w3.org/2000/svg" enable-background="new 0 0 32 32"><path d="M24.6 25h.9c2.5 0 4.5-2 4.5-4.5 0-2.3-1.8-4.2-4-4.4V15c0-.6-.4-1-1-1H7c-.6 0-1 .4-1 1v5c0 3.3 1.6 6.2 4 8H5c-.6 0-1 .4-1 1s.4 1 1 1h22c.6 0 1-.4 1-1s-.4-1-1-1h-5c1.1-.8 2-1.8 2.6-3zm3.4-4.5c0 1.4-1.1 2.5-2.5 2.5.3-.9.5-2 .5-3v-1.9c1.1.2 2 1.2 2 2.4zM24 16v2.4c-1.1.5-4.1 1.4-7.6-.3s-6.6-.8-8.4.1V16h16zM8 20.5c1-.7 4-2.3 7.5-.6 1.8.9 3.5 1.1 5 1.1 1.4 0 2.6-.3 3.5-.5-.1 1-.3 2-.7 2.8-.1.1-.2.3-.2.4-1.4 2.5-4 4.2-7 4.2-4.3.1-7.8-3.2-8.1-7.4zM11 11h3c.3 0 .5.2.5.5v.5c0 .6.4 1 1 1s1-.4 1-1v-.5c0-1.4-1.1-2.5-2.5-2.5h-3c-.3 0-.5-.2-.5-.5s.2-.5.5-.5h9.5c1.7 0 3-1.3 3-3s-1.3-3-3-3h-10c-.6 0-1 .4-1 1s.4 1 1 1h10c.6 0 1 .4 1 1s-.4 1-1 1H11C9.6 6 8.5 7.1 8.5 8.5S9.6 11 11 11z" fill="#ffffff" class="fill-000000"></path></svg>